<svg width="60" height="43" viewBox="0 0 60 43" fill="none" xmlns="http://www.w3.org/2000/svg">
<path d="M45.959 6.65898L47.5948 7.64279C47.6387 7.6691 47.6881 7.68186 47.7375 7.68186C47.818 7.68186 47.8978 7.64837 47.9504 7.58618L52.1851 2.56112C52.2768 2.45189 52.3206 2.32194 52.3007 2.21431C52.2879 2.14176 52.2465 2.08117 52.1843 2.0437L49.5751 0.474714C49.5137 0.43804 49.4372 0.428472 49.3598 0.446012C49.2458 0.473915 49.1358 0.563208 49.0673 0.685985L45.8689 6.3345C45.8051 6.44771 45.8442 6.58962 45.959 6.65898Z" fill="black"/>
<path d="M43.7555 6.36455L45.0192 6.31831C45.0311 6.31831 45.0423 6.31672 45.0542 6.31433C45.1475 6.29599 45.2225 6.21945 45.2296 6.12777L45.578 1.9741C45.5868 1.87205 45.5565 1.77957 45.4959 1.71977C45.4529 1.67752 45.3963 1.65599 45.3365 1.65838L43.3226 1.73253C43.2636 1.73572 43.207 1.76043 43.1656 1.80587C43.1066 1.86886 43.0787 1.96612 43.0898 2.06578L43.5411 6.18995C43.5522 6.292 43.6471 6.36854 43.7563 6.36455H43.7555Z" fill="black"/>
<path d="M48.3839 8.35666L48.8742 9.46006C48.9021 9.52224 48.9603 9.56609 49.0264 9.58124C49.0623 9.59001 49.1006 9.59001 49.1372 9.57964L53.3735 8.44595C53.4764 8.41805 53.5593 8.35746 53.5959 8.28411C53.6223 8.23149 53.6239 8.17409 53.6007 8.12147L52.8195 6.36194C52.7964 6.31012 52.7509 6.26946 52.6919 6.24793C52.609 6.21844 52.503 6.22641 52.4073 6.27105L48.4819 8.10393C48.3847 8.14938 48.3416 8.26019 48.3839 8.35507V8.35666Z" fill="black"/>
<path d="M17.5471 21.2573C18.605 21.1026 19.4827 20.657 20.1746 19.9187C20.2304 19.8526 20.2528 19.7864 20.2424 19.7202C20.232 19.6548 20.2041 19.6014 20.1603 19.56L19.2905 18.7053C19.2244 18.6399 19.159 18.612 19.0952 18.6224C19.0498 18.6296 19.0075 18.6559 18.9677 18.7005C18.4599 19.1255 17.9162 19.3838 17.3382 19.4755C16.9843 19.5321 16.6933 19.4866 16.4645 19.3407C16.2365 19.1956 16.0954 18.9493 16.0428 18.6033L16.0093 18.3848L19.7992 17.7446C19.9642 17.7167 20.0343 17.6234 20.0088 17.464L19.7936 16.1214C19.6341 15.1273 19.2331 14.4408 18.5954 14.0613C17.9632 13.6866 17.2107 13.5886 16.3433 13.764C15.46 13.9425 14.7824 14.326 14.3033 14.9128C13.8274 15.4964 13.6615 16.2578 13.8034 17.2025L14.0577 18.8943C14.1486 19.4962 14.3567 19.9881 14.6843 20.3708C15.0136 20.7558 15.4233 21.0213 15.9152 21.1672C16.4103 21.3139 16.954 21.345 17.5479 21.2573H17.5471ZM15.7582 16.752C15.7024 16.3901 15.7502 16.1047 15.9001 15.8958C16.0507 15.6861 16.2827 15.5514 16.5968 15.4916C16.9037 15.4334 17.1644 15.478 17.3789 15.6255C17.5941 15.7738 17.7296 16.0266 17.7854 16.3845L17.8309 16.6739L15.802 17.0375L15.7582 16.752Z" fill="black"/>
<path d="M25.2304 21.5257C25.7366 21.4516 26.262 21.3336 26.8073 21.1725C27.3565 21.0099 27.8468 20.8313 28.2765 20.6344C28.4224 20.5618 28.483 20.451 28.4567 20.3019L27.7551 16.2479C27.5654 15.1525 27.1373 14.3887 26.4748 13.9566C25.8187 13.5285 24.9705 13.4217 23.9373 13.6313C23.349 13.7509 22.8133 13.9351 22.3294 14.183C21.8487 14.4302 21.4493 14.7005 21.1312 14.9946C21.0818 15.0433 21.0611 15.0951 21.0698 15.1509C21.073 15.17 21.1001 15.2219 21.1527 15.308L21.9077 16.295C21.9683 16.3707 22.0416 16.401 22.1269 16.3851C22.1739 16.3763 22.2194 16.3532 22.2616 16.3165C22.4514 16.1642 22.7073 16.0191 23.0285 15.8804C23.3514 15.7409 23.6727 15.6412 23.9924 15.5806C24.4491 15.4945 24.7856 15.5296 25 15.6875C25.2145 15.8461 25.3564 16.1275 25.4249 16.5325L25.4496 16.6776C24.9466 16.7087 24.5257 16.755 24.1845 16.8164C23.18 16.9981 22.4426 17.3234 21.9643 17.793C21.4892 18.2594 21.3114 18.8541 21.4286 19.5804C21.5601 20.3936 21.9515 20.9597 22.6068 21.2802C23.2685 21.6031 24.1398 21.686 25.2296 21.5257H25.2304ZM23.6328 19.1587C23.5539 18.6795 23.8959 18.3758 24.666 18.245C25.0494 18.1797 25.3946 18.151 25.7015 18.1589L25.9184 19.4425C25.5732 19.578 25.2432 19.6705 24.9275 19.7207C24.5639 19.7789 24.2682 19.7614 24.0378 19.6697C23.8082 19.5788 23.6735 19.4082 23.632 19.1587H23.6328Z" fill="black"/>
<path d="M32.906 16.6725C33.2982 16.6717 33.6043 16.7004 33.8244 16.7594C34.0444 16.8184 34.1719 16.9403 34.2054 17.1245C34.2405 17.319 34.1608 17.4872 33.9647 17.6284C33.7694 17.7695 33.4967 17.8659 33.1467 17.9202C32.3113 18.0493 31.5045 17.9409 30.7241 17.5997C30.6643 17.5678 30.6077 17.5566 30.5551 17.5646C30.4706 17.5781 30.406 17.6395 30.3605 17.7495L29.832 19.0626C29.8041 19.1487 29.7929 19.2069 29.7977 19.2364C29.8113 19.3161 29.8711 19.3791 29.9755 19.4254C30.5144 19.6757 31.0868 19.8431 31.6919 19.9268C32.3025 20.0113 32.902 20.0129 33.4919 19.9292C34.6957 19.7594 35.5925 19.3983 36.1689 18.8458C36.7501 18.2893 36.9573 17.5558 36.7891 16.6493C36.652 15.9119 36.2622 15.3913 35.6244 15.0899C34.9915 14.7909 34.1815 14.649 33.2002 14.6642C32.6429 14.6793 32.2579 14.6586 32.0426 14.6028C31.8282 14.5478 31.703 14.4202 31.6679 14.2201C31.6018 13.8502 31.9111 13.6022 32.5991 13.4755C33.2607 13.3535 33.9224 13.3838 34.5841 13.568C34.6455 13.5887 34.7029 13.5935 34.7587 13.5839C34.8472 13.568 34.9165 13.5026 34.9644 13.3886L35.5152 12.05C35.5375 11.9822 35.5439 11.9232 35.5343 11.8714C35.5176 11.7797 35.4546 11.7231 35.3462 11.7016C34.282 11.4234 33.2695 11.3819 32.3057 11.5709C31.2271 11.7829 30.4251 12.156 29.8918 12.6878C29.3617 13.2164 29.1679 13.8781 29.3074 14.6761C29.5426 16.0211 30.7265 16.6876 32.906 16.6717V16.6725Z" fill="black"/>
<path d="M38.5685 15.0335C38.6992 15.7247 38.9735 16.2987 39.3936 16.7571C39.8153 17.2187 40.3414 17.5408 40.9736 17.7234C41.6106 17.9075 42.3025 17.9442 43.0511 17.8318C43.5701 17.7537 44.121 17.5934 44.7045 17.3479C44.8321 17.9251 44.7715 18.3556 44.5235 18.6394C44.2764 18.9216 43.8539 19.105 43.2584 19.1895C42.4716 19.3011 41.6991 19.2222 40.9409 18.9567C40.8628 18.9352 40.7998 18.928 40.752 18.9352C40.6683 18.9472 40.5997 19.0069 40.5463 19.113L39.8472 20.5417C39.8161 20.6333 39.8033 20.6955 39.8097 20.7274C39.8241 20.8016 39.8902 20.8645 40.009 20.914C40.5447 21.1611 41.1131 21.3174 41.7142 21.3836C42.3193 21.4489 43.0176 21.4322 43.8108 21.3301C45.3566 21.1316 46.4392 20.6485 47.0395 19.8791C47.6438 19.1042 47.7992 17.9849 47.5035 16.5299L45.9928 9.08836C45.9553 8.90419 45.8285 8.83403 45.6133 8.87788L43.4011 9.32355C43.1795 9.36819 43.087 9.4814 43.1229 9.66158L44.2206 15.2033C44.0962 15.291 43.9264 15.3747 43.7112 15.4544C43.4967 15.5341 43.2783 15.5923 43.0567 15.6282C42.5656 15.7087 42.1686 15.6569 41.8633 15.4759C41.5596 15.2949 41.3634 14.9761 41.275 14.5184L40.4379 10.1973C40.4036 10.0195 40.2848 9.95018 40.0839 9.99084L38.0152 10.4078C37.808 10.4493 37.7211 10.5585 37.7545 10.7339L38.5677 15.0335H38.5685Z" fill="black"/>
<path d="M20.4522 25.4034C20.3445 24.7329 20.1102 24.17 19.7506 23.7148C19.3935 23.2627 18.9479 22.943 18.4161 22.7565C17.8884 22.5707 17.3096 22.5229 16.6822 22.6114C16.2286 22.6752 15.7559 22.7908 15.2664 22.9582C14.7793 23.124 14.3504 23.3122 13.9781 23.5218C13.8721 23.5737 13.8291 23.6677 13.8498 23.8049L15.2058 32.8042C15.2313 32.9733 15.323 33.0522 15.4816 33.0418L17.0601 32.9374C17.2132 32.927 17.2769 32.8369 17.2506 32.6655L16.8656 30.1645C17.2777 30.2921 17.7074 30.3375 18.1538 30.2993C18.7422 30.2498 19.2444 30.076 19.6605 29.7771C20.0783 29.4765 20.3796 29.0723 20.5622 28.5653C20.7455 28.0574 20.7846 27.4794 20.681 26.8328L20.4514 25.4057L20.4522 25.4034ZM17.5591 28.4313C17.1884 28.468 16.8608 28.4194 16.577 28.2854L16.0381 24.7863C16.2884 24.6508 16.5874 24.5607 16.9365 24.5168C17.7026 24.4195 18.1546 24.7855 18.2854 25.6154L18.5198 27.1071C18.6465 27.9155 18.3244 28.3572 17.5591 28.4329V28.4313Z" fill="black"/>
<path d="M29.6232 29.4882L28.6219 28.5012C28.5454 28.4255 28.4704 28.3912 28.3979 28.3976C28.3461 28.4024 28.2974 28.4271 28.252 28.4725C27.6724 28.8927 27.0506 29.1295 26.389 29.1853C25.9848 29.2195 25.6515 29.1486 25.3885 28.974C25.127 28.8002 24.9652 28.5259 24.903 28.1488L24.8639 27.9113L29.2007 27.5039C29.3904 27.4863 29.4701 27.3907 29.4406 27.2169L29.1879 25.7531C29.0006 24.6696 28.5374 23.9011 27.804 23.4467C27.0777 22.997 26.2168 22.8376 25.2251 22.9635C24.2174 23.0919 23.4449 23.4554 22.9004 24.0518C22.3599 24.6441 22.1742 25.4509 22.3408 26.4762L22.6381 28.3131C22.7442 28.9668 22.9841 29.5113 23.3596 29.9474C23.7375 30.3859 24.2062 30.7032 24.7691 30.897C25.3359 31.0923 25.9577 31.1672 26.6369 31.1186C27.8478 31.0325 28.8523 30.6195 29.6431 29.8749C29.7061 29.8079 29.7324 29.7378 29.7196 29.666C29.7069 29.5943 29.675 29.5345 29.624 29.4866L29.6232 29.4882ZM24.5698 26.1366C24.5044 25.7435 24.5578 25.4398 24.7284 25.2261C24.899 25.0117 25.1645 24.8833 25.5232 24.8426C25.874 24.8028 26.1729 24.8697 26.4185 25.0443C26.6648 25.2197 26.8218 25.502 26.8872 25.891L26.9406 26.2059L24.6208 26.4475L24.5698 26.1374V26.1366Z" fill="black"/>
<path d="M37.6652 24.5758C37.4428 23.3815 36.9469 22.5277 36.1856 22.0159C35.4314 21.5096 34.4588 21.3358 33.2766 21.4897C32.6046 21.5774 31.9923 21.7384 31.4407 21.9712C30.8922 22.2032 30.4378 22.4663 30.0767 22.7605C30.0201 22.8091 29.9969 22.8633 30.0081 22.9247C30.0113 22.9455 30.0432 23.0037 30.1038 23.0993L30.9703 24.2139C31.0405 24.3 31.1242 24.3375 31.2206 24.3263C31.2748 24.3199 31.3259 24.2984 31.3745 24.2617C31.5905 24.1118 31.8823 23.9731 32.249 23.8463C32.6181 23.7196 32.9848 23.6343 33.35 23.592C33.8729 23.5314 34.258 23.592 34.5043 23.7778C34.7506 23.9635 34.9148 24.2769 34.9954 24.7177L35.0241 24.8756C34.4477 24.8732 33.9654 24.8931 33.5748 24.9354C32.426 25.059 31.585 25.3571 31.0405 25.8283C30.5 26.2963 30.2991 26.9221 30.437 27.7122C30.5909 28.5964 31.0405 29.2334 31.7906 29.6256C32.548 30.0218 33.5461 30.1749 34.7937 30.0824C35.3732 30.0394 35.9751 29.9517 36.6001 29.8178C37.2299 29.683 37.7919 29.526 38.2846 29.345C38.452 29.2772 38.5206 29.1616 38.4903 28.999L37.6652 24.5758ZM34.4381 28.1148C34.022 28.1515 33.6832 28.1116 33.4193 27.996C33.1562 27.8812 33.0016 27.6883 32.9529 27.4172C32.8597 26.8958 33.2503 26.5937 34.1312 26.5076C34.5697 26.4645 34.9651 26.4581 35.3182 26.4884L35.5733 27.8868C35.1787 28.0072 34.8 28.0837 34.4389 28.1148H34.4381Z" fill="black"/>
<path d="M46.8025 26.9573C46.0627 26.5794 45.1181 26.3586 43.9741 26.2932C43.3252 26.2629 42.8779 26.2087 42.6276 26.1314C42.3781 26.054 42.2322 25.9049 42.19 25.6849C42.111 25.2775 42.469 25.0343 43.2694 24.953C44.0387 24.8749 44.8095 24.9618 45.5812 25.2169C45.6522 25.244 45.7207 25.2544 45.7853 25.248C45.8889 25.2376 45.9687 25.1731 46.0237 25.0519L46.659 23.6408C46.6845 23.569 46.6917 23.5052 46.6806 23.4486C46.6598 23.3474 46.5865 23.2804 46.4605 23.2485C45.2185 22.8602 44.0387 22.7327 42.9186 22.8602C41.6662 23.0038 40.7367 23.3426 40.1212 23.8767C39.5098 24.4069 39.2882 25.1085 39.4532 25.9847C39.7322 27.462 41.1098 28.2839 43.6432 28.4498C44.0992 28.4817 44.4564 28.5391 44.7131 28.6212C44.9698 28.7041 45.1189 28.8468 45.1587 29.0501C45.201 29.2646 45.1085 29.4408 44.8813 29.5771C44.6549 29.7134 44.3376 29.7963 43.9302 29.825C42.9592 29.8944 42.0202 29.7086 41.1114 29.2725C41.042 29.2335 40.9758 29.2159 40.9152 29.2207C40.8172 29.2279 40.7422 29.2901 40.6904 29.4057L40.083 30.7857C40.0511 30.8774 40.0383 30.9388 40.0447 30.9715C40.0614 31.0592 40.13 31.1325 40.252 31.1915C40.8786 31.5088 41.5442 31.7392 42.2482 31.8827C42.9585 32.027 43.656 32.0797 44.3424 32.0398C45.7447 31.9585 46.7882 31.6428 47.4594 31.0903C48.1354 30.5338 48.3738 29.7525 48.1721 28.7519C48.0079 27.9371 47.5503 27.3384 46.8033 26.9573H46.8025Z" fill="black"/>
<path d="M58.0256 17.4599C57.981 17.259 57.8335 17.1753 57.5824 17.2112L55.013 17.574C54.7555 17.6106 54.6487 17.727 54.6917 17.9247L55.9959 23.9878C55.8517 24.0755 55.6547 24.1569 55.4052 24.231C55.1565 24.3051 54.9038 24.3554 54.6463 24.3817C54.0771 24.4407 53.6155 24.3625 53.2608 24.1481C52.9076 23.9352 52.6788 23.5788 52.5744 23.079L51.5835 18.3592C51.5428 18.1647 51.4049 18.0842 51.1721 18.1169L48.7821 18.4549C48.543 18.4892 48.4433 18.6016 48.4824 18.7922L49.4438 23.4816C49.5984 24.2358 49.9181 24.872 50.406 25.3918C50.8963 25.9148 51.5069 26.2935 52.2403 26.5287C52.9801 26.7655 53.7829 26.8452 54.6503 26.7678C55.253 26.7136 55.8923 26.5717 56.5691 26.3405C56.7198 26.9735 56.652 27.4367 56.3658 27.7293C56.0796 28.0203 55.5902 28.1941 54.899 28.2499C53.9854 28.3241 53.0894 28.1925 52.2093 27.8609C52.1184 27.833 52.045 27.821 51.99 27.8258C51.8928 27.8338 51.8138 27.8944 51.7525 28.006L50.9497 29.5096C50.9138 29.6069 50.8995 29.673 50.9066 29.7081C50.9234 29.7894 51.0007 29.8612 51.1386 29.9218C51.7604 30.2215 52.4189 30.4248 53.1165 30.5325C53.8196 30.6401 54.6295 30.664 55.5503 30.6018C57.3472 30.4806 58.6052 30.0222 59.3003 29.2234C60.0003 28.4182 60.1756 27.2127 59.8241 25.6158L58.0256 17.4599Z" fill="black"/>
<path d="M12.3789 14.2508C13.754 12.4507 15.7104 11.781 18.8928 10.9933C22.5854 10.0796 27.8118 9.04162 34.3639 8.55051C33.5301 7.01261 30.9623 2.77363 25.8451 0.886542C25.3381 0.699985 22.9951 0 19.949 0C8.93099 0 0 8.93239 0 19.9504C0 25.0648 1.92523 29.7287 5.0893 33.2597V42.1403L9.98967 37.2396C12.921 38.9321 16.3218 39.9008 19.9498 39.9008C21.0914 39.9008 23.3116 39.8825 25.7184 39.0525C29.9945 37.5776 32.4953 34.3551 33.5508 32.775C31.742 33.0412 28.8107 33.5013 25.205 34.1996C17.7711 35.6403 16.494 36.349 14.8231 35.421C11.9197 33.809 11.612 29.3587 11.1592 22.799C10.7311 16.6003 11.9492 14.8129 12.3805 14.2485L12.3789 14.2508Z" fill="black"/>
</svg>
